<?xml version="1.0" standalone="no"?>
<!DOCTYPE svg PUBLIC "-//W3C//DTD SVG 20010904//EN"
 "http://www.w3.org/TR/2001/REC-SVG-20010904/DTD/svg10.dtd">
<svg version="1.0" xmlns="http://www.w3.org/2000/svg"
 width="100.000000pt" height="100.000000pt" viewBox="0 0 800.000000 800.000000"
 preserveAspectRatio="xMidYMid meet">

<g transform="translate(0.000000,800.000000) scale(0.100000,-0.100000)"
fill="#FFFFFF" stroke="none">
<path d="M2085 6281 c-28 -10 -77 -31 -110 -46 -110 -50 -139 -63 -240 -105
-55 -23 -123 -52 -151 -65 -27 -13 -74 -33 -104 -45 -29 -12 -79 -33 -109 -47
-74 -33 -96 -43 -226 -99 -60 -26 -138 -60 -173 -75 -34 -16 -64 -29 -67 -29
-6 0 -111 -47 -175 -78 -52 -25 -124 -100 -154 -161 -35 -69 -38 -79 -42 -179
-4 -103 -5 -102 240 -747 32 -82 66 -175 76 -205 9 -30 25 -68 34 -85 9 -16
16 -34 16 -38 0 -4 13 -43 29 -85 16 -42 42 -111 57 -152 15 -41 31 -80 36
-86 4 -6 19 -44 33 -85 l25 -74 0 -1032 0 -1033 370 0 370 0 -2 1183 -3 1182
-54 115 c-29 63 -73 169 -97 235 -23 66 -56 154 -72 195 -16 41 -48 127 -72
190 -23 63 -53 142 -65 175 -38 101 -49 134 -44 138 2 1 40 18 84 36 98 41
141 60 225 98 36 16 103 45 150 64 47 18 87 37 90 40 3 3 16 10 30 14 14 4 54
21 90 37 36 16 74 33 85 38 11 5 49 22 85 38 36 16 76 33 89 37 13 4 45 20 71
35 50 29 58 30 170 5 41 -8 93 -18 115 -21 22 -3 74 -11 115 -19 41 -7 91 -16
110 -19 19 -3 46 -8 60 -11 25 -5 128 -24 165 -30 11 -2 63 -10 115 -19 137
-23 156 -29 152 -52 -2 -10 -24 -102 -48 -203 l-43 -184 20 -26 c29 -36 441
-453 444 -449 2 2 -26 50 -61 108 -36 58 -104 170 -151 248 l-86 144 69 61
c37 34 81 74 97 89 22 19 52 31 116 44 129 25 164 23 256 -17 l80 -35 0 -59
c0 -53 -7 -155 -19 -295 -19 -208 -16 -240 14 -135 4 17 18 55 30 85 12 30 30
80 40 110 10 30 28 80 40 110 28 73 80 229 80 241 0 6 -15 27 -34 47 -19 20
-43 46 -53 58 -10 12 -70 76 -133 144 -63 67 -114 130 -113 139 6 44 4 149 -3
176 -13 51 -65 125 -115 165 -56 44 -160 81 -264 95 -44 6 -46 6 -155 28 -41
9 -93 18 -115 22 -23 3 -52 8 -65 10 -14 3 -52 10 -85 15 -33 6 -73 13 -90 16
-16 3 -67 12 -112 20 -46 8 -120 20 -165 28 -46 8 -94 17 -108 19 -14 3 -43 8
-65 12 -22 4 -71 13 -110 20 -38 8 -85 12 -103 11 -18 -2 -50 3 -70 10 -54 19
-187 16 -247 -5z m265 -82 c87 -44 136 -99 165 -188 23 -71 17 -169 -15 -231
-30 -58 -93 -125 -139 -146 -20 -9 -55 -25 -78 -35 -24 -10 -62 -28 -85 -39
-24 -10 -74 -32 -113 -48 -91 -38 -345 -148 -413 -178 -29 -13 -54 -24 -57
-24 -5 0 -136 -59 -159 -72 -11 -6 -32 -14 -48 -19 -33 -9 -34 -9 -77 114 -59
167 -107 244 -190 301 -42 29 -105 55 -156 63 -16 3 -32 6 -34 8 -4 5 136 71
190 90 20 7 61 24 90 38 104 47 146 65 324 142 191 81 251 108 300 130 56 27
200 87 250 106 76 28 176 23 245 -12z m245 -25 c17 -3 41 -7 55 -10 14 -3 41
-7 60 -10 19 -3 55 -9 80 -14 25 -6 67 -13 94 -16 28 -3 52 -7 56 -9 3 -2 25
-6 50 -10 25 -4 47 -8 50 -10 4 -2 29 -7 56 -11 27 -3 58 -8 69 -10 11 -2 47
-9 80 -14 68 -11 97 -17 140 -25 17 -3 44 -8 60 -11 35 -7 45 -15 27 -22 -32
-11 -85 -69 -112 -122 -55 -109 -56 -223 -1 -311 16 -27 27 -49 23 -49 -9 0
-118 18 -152 25 -14 3 -52 10 -85 15 -33 5 -71 12 -85 15 -14 3 -45 8 -69 11
-25 3 -47 7 -51 9 -3 2 -25 6 -50 10 -25 4 -47 8 -51 10 -3 2 -28 7 -56 10
-28 3 -82 12 -119 20 -37 8 -71 12 -75 9 -4 -2 -11 1 -14 7 -4 5 -13 8 -21 5
-24 -9 -28 23 -6 47 26 28 50 99 58 169 8 73 -19 179 -62 245 -19 29 -34 55
-34 59 0 3 12 3 28 0 15 -4 41 -9 57 -12z m1144 -306 c45 -36 63 -74 63 -131
-1 -54 -17 -85 -65 -120 -28 -22 -114 -39 -123 -25 -3 4 -14 8 -24 8 -29 0
-78 56 -91 103 -9 32 -8 50 1 77 19 52 49 90 84 106 43 20 119 11 155 -18z
m-2681 -267 c114 -59 132 -88 257 -431 13 -36 38 -101 55 -145 17 -44 49 -129
71 -190 21 -60 46 -124 54 -142 9 -18 35 -88 60 -156 24 -68 50 -140 59 -160
8 -21 14 -37 13 -37 -1 0 -24 7 -51 15 -216 66 -460 -78 -491 -288 -7 -46 -14
-54 -19 -25 -1 7 -10 29 -19 48 -9 19 -38 91 -63 160 -26 69 -70 188 -99 265
-29 77 -74 196 -99 265 -26 69 -55 148 -66 175 -11 28 -40 103 -65 168 -47
122 -58 190 -40 267 21 96 99 183 200 223 59 23 187 17 243 -12z m470 -1407
c110 -45 162 -174 113 -279 -75 -162 -299 -166 -380 -7 -38 74 -20 184 40 242
59 56 154 75 227 44z"/>
<path d="M2161 6108 c-194 -34 -231 -293 -54 -379 88 -43 175 -26 242 46 43
47 59 104 47 173 -16 101 -131 179 -235 160z m126 -71 c17 -12 38 -36 47 -54
19 -39 21 -115 5 -146 -42 -81 -158 -111 -229 -59 -50 37 -72 82 -68 138 10
125 142 191 245 121z"/>
<path d="M2152 5970 c-26 -16 -32 -26 -32 -55 0 -45 37 -85 77 -85 69 1 103
84 55 133 -27 26 -63 29 -100 7z"/>
<path d="M3572 5819 c-43 -42 -45 -100 -4 -148 23 -27 34 -33 72 -34 85 -2
135 61 109 140 -25 77 -119 99 -177 42z m120 -26 c34 -31 11 -113 -32 -113
-28 0 -70 21 -70 36 0 7 -3 19 -6 28 -8 20 39 66 67 66 12 0 31 -7 41 -17z"/>
<path d="M835 5481 c-80 -36 -123 -119 -111 -215 7 -59 36 -105 89 -139 136
-89 310 9 311 175 0 47 -5 64 -30 100 -47 67 -98 97 -164 97 -32 1 -72 -7 -95
-18z m176 -57 c94 -59 88 -205 -10 -261 -49 -28 -100 -29 -151 -3 -52 26 -80
68 -82 123 -6 139 125 215 243 141z"/>
<path d="M873 5358 c-29 -32 -34 -53 -22 -88 20 -55 82 -67 124 -25 44 43 29
103 -32 126 -36 13 -47 11 -70 -13z"/>
<path d="M1383 4132 c-99 -54 -110 -190 -19 -255 37 -26 118 -30 160 -7 36 19
76 88 76 130 0 106 -124 182 -217 132z m120 -64 c9 -7 21 -27 26 -44 28 -98
-101 -154 -152 -66 -22 37 -17 72 13 102 23 23 87 27 113 8z"/>
<path d="M3170 4560 c-104 -13 -249 -47 -350 -82 -288 -102 -483 -287 -560
-533 -34 -107 -39 -283 -11 -399 52 -217 201 -385 448 -502 109 -51 302 -113
568 -183 329 -85 421 -120 496 -188 60 -54 82 -104 77 -174 -6 -79 -46 -144
-118 -187 -96 -57 -145 -67 -335 -67 -151 0 -177 3 -236 23 -159 55 -250 171
-268 342 l-6 55 -362 3 -363 2 0 -64 c0 -195 81 -412 214 -570 100 -121 312
-247 501 -300 335 -94 762 -85 1086 24 245 82 429 231 524 423 69 141 88 223
89 402 1 131 -2 159 -22 225 -49 155 -125 263 -254 360 -160 121 -343 191
-798 305 -351 88 -460 135 -510 218 -23 38 -26 112 -7 160 22 52 88 103 162
126 84 26 261 29 350 6 165 -43 265 -148 265 -276 l0 -39 366 0 367 0 -7 80
c-8 100 -47 235 -92 321 -126 239 -397 412 -741 475 -105 19 -368 26 -473 14z"/>
<path d="M6026 4559 c-216 -25 -426 -102 -606 -222 -99 -66 -283 -251 -349
-352 -333 -506 -333 -1224 0 -1730 66 -101 250 -286 349 -352 148 -99 307
-165 493 -205 136 -29 435 -32 572 -5 487 95 816 376 940 803 23 79 55 250 55
297 0 16 -24 17 -363 17 l-363 0 -16 -84 c-40 -213 -179 -363 -380 -411 -82
-19 -247 -19 -323 0 -258 66 -426 289 -475 630 -12 88 -12 248 0 344 16 123
39 201 92 311 84 174 210 281 383 325 74 19 238 19 326 1 192 -41 328 -167
378 -349 l16 -62 358 -3 c313 -2 358 0 363 13 10 25 -16 174 -47 270 -161 502
-775 837 -1403 764z"/>
</g>
</svg>
