<svg version="1.2" xmlns="http://www.w3.org/2000/svg" viewBox="0 0 776 328" width="776" height="328">
	<title>toyota-logo-svg</title>
	<defs>
		<clipPath clipPathUnits="userSpaceOnUse" id="cp1">
			<path d="m-262-111h1300v550h-1300z"/>
		</clipPath>
	</defs>
	<style>
		.s0 { fill: #000000 } 
		.s1 { fill: #eb0a1e } 
		.s2 { fill: #ffffff } 
	</style>
	<g id="Clip-Path" clip-path="url(#cp1)">
		<g id="Layer">
			<path id="Layer" fill-rule="evenodd" class="s0" d="m775.3 205.6h-21.2l-7.8-20.4h-35l-7.8 20.4h-21.2l34.2-83.9h24.6zm-34.8-35.4l-11.7-30.9-11.8 30.9zm-155.5-48c5.4 2.2 10.2 5.5 14.4 9.6 4.1 4.1 7.3 9 9.6 14.4 2.2 5.4 3.4 11.1 3.4 17 0 17.9-10.8 34-27.4 40.9-16.6 6.9-35.6 3.1-48.3-9.6-12.7-12.7-16.5-31.7-9.6-48.3 6.8-16.6 23-27.4 40.9-27.4 5.8 0 11.6 1.2 17 3.4zm8 41c0-15.4-11.2-27.9-25-27.9-13.8 0-25 12.5-25 27.9 0 15.4 11.2 27.8 25 27.8 13.8 0 25-12.4 25-27.8zm-183-41c5.4 2.2 10.3 5.5 14.4 9.6 4.1 4.1 7.4 9 9.6 14.4 2.3 5.4 3.4 11.1 3.4 17 0 17.9-10.8 34-27.4 40.9-16.5 6.9-35.6 3.1-48.3-9.6-12.6-12.7-16.4-31.7-9.6-48.3 6.9-16.6 23-27.4 41-27.4 5.8 0 11.6 1.2 16.9 3.4zm8.1 41c0-15.4-11.2-27.9-25-27.9-13.8 0-25 12.5-25 27.9 0 15.4 11.2 27.8 25 27.8 13.8 0 25-12.4 25-27.8zm105.8-41.5l-33.6 52.6v31.3h-18.7v-31.3l-33.7-52.6h21.3l21.7 34 21.8-34zm162.7 16.1h-26.5v67.8h-18.7v-67.8h-26.6v-16.1h71.8zm-413.6-16.1h71.8v16.1h-26.5v67.8h-18.7v-67.8h-26.6z"/>
			<path id="Layer" class="s1" d="m21.5 63.2h201.4v201.4h-201.4z"/>
			<path id="Layer" fill-rule="evenodd" class="s2" d="m197.7 163.9c0 27-33.8 48.9-75.5 48.9-41.8 0-75.6-21.9-75.6-48.9 0-19.2 17.1-35.8 42-43.8q8.2-2.3 16.6-3.5 8.4-1.2 17-1.2 8.5 0 16.9 1.2 8.5 1.2 16.6 3.5c24.9 8 42 24.6 42 43.8zm-63.9 0.2q-5.7 0.6-11.6 0.6-6 0-11.6-0.6c0.3 15.4 5.3 27.7 11.6 27.7 6.2 0 11.3-12.3 11.6-27.7zm-11.6-11.5q5.6 0 10.8-0.5c-1.7-10.8-5.9-18.4-10.8-18.4-5 0-9.2 7.6-10.9 18.4q5.2 0.5 10.9 0.5zm43.5-15.5c0-8.6-19.5-15.5-43.5-15.5-24.1 0-43.5 6.9-43.5 15.5 0 6.3 10.7 11.8 26 14.2 2.6-17 9.4-29.1 17.5-29.1 8 0 14.9 12.1 17.4 29.1 15.3-2.4 26.1-7.9 26.1-14.2zm-49.2 70c-7.4-5.7-12.8-22.1-12.8-41.4q0-1.2 0-2.4c-21.8-3.2-37.4-12.1-37.4-22.5q0-0.2 0-0.3 0-0.2 0-0.4 0-0.2 0.1-0.3 0-0.2 0-0.4c-5.6 6.7-8.7 14.4-8.7 22.7 0 23.6 25.8 43 58.8 45zm70.2-45c0-8.3-3.2-16-8.8-22.7q0 0.2 0.1 0.4 0 0.1 0 0.3 0 0.2 0 0.4 0 0.1 0 0.3c0 10.4-15.6 19.3-37.4 22.5q0 1.2 0 2.4c0 19.3-5.3 35.7-12.7 41.4 32.9-2 58.8-21.4 58.8-45z"/>
		</g>
	</g>
</svg>